<svg xmlns="http://www.w3.org/2000/svg" viewBox="0 0 800 400" role="img" aria-label="A London high street of terraced houses at dusk">
  <defs>
    <linearGradient id="dsky" x1="0" y1="0" x2="0" y2="1">
      <stop offset="0" stop-color="#12100C"/>
      <stop offset="1" stop-color="#1B1710"/>
    </linearGradient>
    <radialGradient id="dglow" cx="50%" cy="118%" r="70%">
      <stop offset="0" stop-color="#CBA43A" stop-opacity="0.34"/>
      <stop offset="1" stop-color="#CBA43A" stop-opacity="0"/>
    </radialGradient>
  </defs>
  <rect width="800" height="400" fill="url(#dsky)"/>
  <rect width="800" height="400" fill="url(#dglow)"/>
  <!-- moon -->
  <circle cx="660" cy="86" r="30" fill="#F4EDDD" opacity="0.92"/>
  <circle cx="648" cy="80" r="30" fill="#1B1710"/>
  <!-- bunting -->
  <g stroke="#3A3327" stroke-width="2" fill="none">
    <path d="M0 62 Q 200 96 400 62 T 800 62"/>
  </g>
  <g>
    <polygon points="70,72 92,72 81,92" fill="#CBA43A"/>
    <polygon points="200,80 222,80 211,100" fill="#EADFC8"/>
    <polygon points="330,74 352,74 341,94" fill="#CBA43A"/>
    <polygon points="470,74 492,74 481,94" fill="#EADFC8"/>
    <polygon points="600,80 622,80 611,100" fill="#CBA43A"/>
    <polygon points="720,72 742,72 731,92" fill="#EADFC8"/>
  </g>
  <!-- terraced houses -->
  <g>
    <!-- house unit repeated with slight variation -->
    <g fill="#241F18">
      <rect x="0"   y="210" width="150" height="190"/>
      <rect x="160" y="180" width="150" height="220"/>
      <rect x="320" y="205" width="150" height="195"/>
      <rect x="480" y="175" width="150" height="225"/>
      <rect x="640" y="212" width="170" height="188"/>
    </g>
    <!-- pitched roofs -->
    <g fill="#1A160F">
      <polygon points="0,210 75,168 150,210"/>
      <polygon points="160,180 235,140 310,180"/>
      <polygon points="320,205 395,164 470,205"/>
      <polygon points="480,175 555,135 630,175"/>
      <polygon points="640,212 725,172 810,212"/>
    </g>
    <!-- chimneys -->
    <g fill="#2C261D">
      <rect x="52" y="180" width="16" height="24"/>
      <rect x="214" y="150" width="16" height="26"/>
      <rect x="372" y="176" width="16" height="24"/>
      <rect x="534" y="146" width="16" height="26"/>
      <rect x="700" y="184" width="16" height="24"/>
    </g>
    <!-- lit windows -->
    <g fill="#CBA43A">
      <rect x="28"  y="250" width="26" height="34" rx="2"/>
      <rect x="96"  y="250" width="26" height="34" rx="2" opacity="0.65"/>
      <rect x="192" y="224" width="26" height="34" rx="2"/>
      <rect x="256" y="224" width="26" height="34" rx="2" opacity="0.55"/>
      <rect x="352" y="248" width="26" height="34" rx="2" opacity="0.7"/>
      <rect x="416" y="248" width="26" height="34" rx="2"/>
      <rect x="512" y="220" width="26" height="34" rx="2"/>
      <rect x="576" y="220" width="26" height="34" rx="2" opacity="0.6"/>
      <rect x="676" y="252" width="26" height="34" rx="2" opacity="0.65"/>
      <rect x="742" y="252" width="26" height="34" rx="2"/>
    </g>
    <!-- warm doorways -->
    <g fill="#A8841F">
      <rect x="60"  y="330" width="30" height="70" rx="3" opacity="0.85"/>
      <rect x="222" y="300" width="30" height="100" rx="3" opacity="0.85"/>
      <rect x="540" y="296" width="30" height="104" rx="3" opacity="0.85"/>
    </g>
  </g>
  <!-- street lamp -->
  <g>
    <rect x="392" y="250" width="6" height="150" fill="#2C261D"/>
    <circle cx="395" cy="248" r="9" fill="#F0DEA6"/>
    <circle cx="395" cy="248" r="22" fill="#CBA43A" opacity="0.25"/>
  </g>
</svg>
