<svg xmlns="http://www.w3.org/2000/svg" viewBox="0 0 800 400" role="img" aria-label="A digital membership pass card with a QR code, held up at an event">
  <defs>
    <linearGradient id="psky" x1="0" y1="0" x2="0" y2="1">
      <stop offset="0" stop-color="#12100C"/>
      <stop offset="1" stop-color="#1B1710"/>
    </linearGradient>
    <linearGradient id="pcard" x1="0" y1="0" x2="1" y2="1">
      <stop offset="0" stop-color="#CBA43A"/>
      <stop offset="1" stop-color="#A8841F"/>
    </linearGradient>
    <radialGradient id="pglow" cx="50%" cy="42%" r="60%">
      <stop offset="0" stop-color="#CBA43A" stop-opacity="0.28"/>
      <stop offset="1" stop-color="#CBA43A" stop-opacity="0"/>
    </radialGradient>
  </defs>
  <rect width="800" height="400" fill="url(#psky)"/>
  <rect width="800" height="400" fill="url(#pglow)"/>
  <!-- soft crowd lights behind -->
  <g fill="#CBA43A" opacity="0.5">
    <circle cx="90"  cy="120" r="4"/>
    <circle cx="150" cy="90"  r="3"/>
    <circle cx="700" cy="110" r="4"/>
    <circle cx="640" cy="86"  r="3"/>
    <circle cx="740" cy="150" r="3"/>
    <circle cx="60"  cy="180" r="3"/>
  </g>
  <g fill="#EADFC8" opacity="0.25">
    <circle cx="120" cy="150" r="2.5"/>
    <circle cx="680" cy="150" r="2.5"/>
    <circle cx="100" cy="90"  r="2"/>
    <circle cx="720" cy="90"  r="2"/>
  </g>
  <!-- the pass card, tilted -->
  <g transform="rotate(-7 400 210)">
    <rect x="250" y="70" width="300" height="280" rx="26" fill="url(#pcard)"/>
    <rect x="250" y="70" width="300" height="280" rx="26" fill="none" stroke="#0A0A0A" stroke-opacity="0.15" stroke-width="2"/>
    <!-- header -->
    <circle cx="292" cy="112" r="14" fill="#0A0A0A" opacity="0.85"/>
    <rect x="316" y="102" width="120" height="10" rx="5" fill="#0A0A0A" opacity="0.8"/>
    <rect x="316" y="120" width="80"  height="8"  rx="4" fill="#0A0A0A" opacity="0.45"/>
    <!-- QR code panel -->
    <rect x="322" y="150" width="156" height="156" rx="14" fill="#141109"/>
    <g fill="#CBA43A">
      <!-- finder squares -->
      <rect x="338" y="166" width="34" height="34" rx="4"/>
      <rect x="346" y="174" width="18" height="18" rx="2" fill="#141109"/>
      <rect x="428" y="166" width="34" height="34" rx="4"/>
      <rect x="436" y="174" width="18" height="18" rx="2" fill="#141109"/>
      <rect x="338" y="256" width="34" height="34" rx="4"/>
      <rect x="346" y="264" width="18" height="18" rx="2" fill="#141109"/>
      <!-- data modules -->
      <rect x="384" y="166" width="10" height="10"/>
      <rect x="400" y="166" width="10" height="10"/>
      <rect x="384" y="182" width="10" height="10"/>
      <rect x="338" y="212" width="10" height="10"/>
      <rect x="354" y="212" width="10" height="10"/>
      <rect x="384" y="212" width="10" height="10"/>
      <rect x="416" y="212" width="10" height="10"/>
      <rect x="448" y="212" width="10" height="10"/>
      <rect x="400" y="228" width="10" height="10"/>
      <rect x="432" y="228" width="10" height="10"/>
      <rect x="384" y="256" width="10" height="10"/>
      <rect x="416" y="256" width="10" height="10"/>
      <rect x="448" y="256" width="10" height="10"/>
      <rect x="400" y="272" width="10" height="10"/>
      <rect x="432" y="272" width="10" height="10"/>
      <rect x="448" y="272" width="10" height="10"/>
      <rect x="384" y="288" width="10" height="10"/>
      <rect x="416" y="288" width="10" height="10"/>
    </g>
  </g>
</svg>
