<svg xmlns="http://www.w3.org/2000/svg" viewBox="0 0 1600 900" preserveAspectRatio="xMidYMid slice" role="img" aria-label="An abstract map of London showing the Thames and a glowing network of connected event locations across the city">
  <defs>
    <linearGradient id="vnRiver" x1="0" y1="0" x2="1" y2="0.3">
      <stop offset="0" stop-color="#8B98A8"/>
      <stop offset="0.55" stop-color="#CBA43A"/>
      <stop offset="1" stop-color="#8B98A8"/>
    </linearGradient>
    <radialGradient id="vnGlow" cx="50%" cy="50%" r="50%">
      <stop offset="0" stop-color="#CBA43A" stop-opacity="0.9"/>
      <stop offset="1" stop-color="#CBA43A" stop-opacity="0"/>
    </radialGradient>
    <radialGradient id="vnAmbient" cx="68%" cy="40%" r="60%">
      <stop offset="0" stop-color="#CBA43A" stop-opacity="0.26"/>
      <stop offset="1" stop-color="#CBA43A" stop-opacity="0"/>
    </radialGradient>
  </defs>

  <rect width="1600" height="900" fill="#0d0e10"/>
  <rect width="1600" height="900" fill="url(#vnAmbient)"/>

  <!-- faint map graticule -->
  <g stroke="#CBA43A" stroke-width="1" opacity="0.09">
    <line x1="0" y1="120" x2="1600" y2="90"/>
    <line x1="0" y1="280" x2="1600" y2="260"/>
    <line x1="0" y1="440" x2="1600" y2="470"/>
    <line x1="0" y1="640" x2="1600" y2="690"/>
    <line x1="0" y1="800" x2="1600" y2="840"/>
    <line x1="220" y1="0" x2="180" y2="900"/>
    <line x1="520" y1="0" x2="480" y2="900"/>
    <line x1="860" y1="0" x2="900" y2="900"/>
    <line x1="1180" y1="0" x2="1220" y2="900"/>
    <line x1="1440" y1="0" x2="1480" y2="900"/>
  </g>

  <!-- soft borough-boundary hints -->
  <g stroke="#C6CAD1" stroke-width="1.2" opacity="0.14" fill="none">
    <path d="M60,140 C220,110 340,180 420,270 C480,340 460,430 380,470"/>
    <path d="M900,60 C1040,90 1140,70 1260,130 C1360,180 1380,260 1330,330"/>
    <path d="M1060,520 C1180,560 1300,540 1420,600 C1500,640 1540,700 1500,760"/>
  </g>

  <!-- Thames, abstracted -->
  <path d="M-40,580 C280,540 440,660 700,610 C960,560 1100,470 1380,510 C1500,528 1560,560 1650,548"
        fill="none" stroke="url(#vnRiver)" stroke-width="42" stroke-linecap="round" opacity="0.32"/>

  <!-- network connections -->
  <g stroke="#CBA43A" stroke-width="1.4" opacity="0.46">
    <line x1="560" y1="520" x2="640" y2="420"/>
    <line x1="640" y1="420" x2="720" y2="560"/>
    <line x1="720" y1="560" x2="500" y2="600"/>
    <line x1="980" y1="300" x2="1060" y2="420"/>
    <line x1="1060" y1="420" x2="1150" y2="340"/>
    <line x1="1150" y1="340" x2="1230" y2="480"/>
    <line x1="1230" y1="480" x2="1300" y2="380"/>
    <line x1="1300" y1="380" x2="1380" y2="520"/>
    <line x1="1120" y1="600" x2="1000" y2="560"/>
    <line x1="1000" y1="560" x2="860" y2="460"/>
    <line x1="860" y1="460" x2="980" y2="300"/>
    <line x1="1380" y1="520" x2="1450" y2="300"/>
    <line x1="1450" y1="300" x2="1500" y2="460"/>
    <line x1="1500" y1="460" x2="1560" y2="380"/>
    <line x1="260" y1="340" x2="560" y2="520"/>
    <line x1="90" y1="620" x2="500" y2="600"/>
  </g>

  <!-- event pins: quiet nodes -->
  <g fill="#E7E4DC">
    <circle cx="120" cy="180" r="2.6" opacity="0.5"/>
    <circle cx="260" cy="340" r="3" opacity="0.58"/>
    <circle cx="90"  cy="620" r="2.6" opacity="0.5"/>
    <circle cx="560" cy="520" r="3.2" opacity="0.65"/>
    <circle cx="640" cy="420" r="2.8" opacity="0.58"/>
    <circle cx="500" cy="600" r="2.8" opacity="0.58"/>
    <circle cx="980" cy="300" r="3" opacity="0.6"/>
    <circle cx="1060" cy="420" r="2.8" opacity="0.58"/>
    <circle cx="1230" cy="480" r="3" opacity="0.6"/>
    <circle cx="1300" cy="380" r="2.8" opacity="0.58"/>
    <circle cx="1120" cy="600" r="2.8" opacity="0.55"/>
    <circle cx="860"  cy="460" r="2.8" opacity="0.55"/>
    <circle cx="1500" cy="460" r="2.8" opacity="0.55"/>
    <circle cx="1560" cy="380" r="2.6" opacity="0.5"/>
  </g>

  <!-- event pins: live / featured, with soft halo -->
  <g>
    <circle cx="720"  cy="560" r="22" fill="url(#vnGlow)"/>
    <circle cx="1150" cy="340" r="22" fill="url(#vnGlow)"/>
    <circle cx="1380" cy="520" r="22" fill="url(#vnGlow)"/>
    <circle cx="1000" cy="560" r="22" fill="url(#vnGlow)"/>
    <circle cx="1450" cy="300" r="18" fill="url(#vnGlow)"/>

    <circle cx="720"  cy="560" r="4.6" fill="#F4E3A8"/>
    <circle cx="1150" cy="340" r="4.6" fill="#F4E3A8"/>
    <circle cx="1380" cy="520" r="4.6" fill="#F4E3A8"/>
    <circle cx="1000" cy="560" r="4.6" fill="#F4E3A8"/>
    <circle cx="1450" cy="300" r="4" fill="#F4E3A8"/>

    <circle cx="720"  cy="560" r="10" fill="none" stroke="#F4E3A8" stroke-width="1" opacity="0.35"/>
    <circle cx="1150" cy="340" r="10" fill="none" stroke="#F4E3A8" stroke-width="1" opacity="0.35"/>
  </g>
</svg>
